<svg width="97" height="96" viewBox="0 0 97 96" fill="none" xmlns="http://www.w3.org/2000/svg">
<path fill-rule="evenodd" clip-rule="evenodd" d="M35.7356 51.6921C35.2539 51.9198 34.8227 52.2414 34.467 52.6381C34.1114 53.0347 33.8385 53.4984 33.6646 54.002C33.4906 54.5055 33.4189 55.0388 33.4538 55.5704C33.4887 56.102 33.6295 56.6212 33.8678 57.0977C34.1061 57.5742 34.4372 57.9982 34.8417 58.345C35.2462 58.6918 35.7158 58.9542 36.2231 59.117C36.7304 59.2798 37.265 59.3396 37.7957 59.2929C38.3264 59.2462 38.8425 59.094 39.3135 58.8452C39.8792 58.5623 40.5637 58.8848 40.708 59.5042L42.1052 65.5627C42.4106 66.8866 43.0124 68.1241 43.8653 69.1817C44.7182 70.2394 45.8 71.0897 47.0292 71.6686C48.2585 72.2476 49.603 72.54 50.9616 72.524C52.3203 72.5079 53.6575 72.1837 54.8727 71.5759C55.8217 71.1011 56.5431 70.2687 56.8783 69.262C57.2136 68.2552 57.1351 67.1565 56.6603 66.2076C56.1854 65.2586 55.3531 64.5372 54.3463 64.202C53.3396 63.8667 52.2409 63.9452 51.2919 64.42C51.1594 64.486 51.0136 64.5211 50.8656 64.5227C50.7175 64.5243 50.571 64.4923 50.4371 64.4291C50.3032 64.366 50.1853 64.2733 50.0924 64.1581C49.9994 64.0428 49.9337 63.908 49.9003 63.7638L48.5031 57.7053C48.1978 56.3813 47.596 55.1439 46.743 54.0863C45.8901 53.0286 44.8083 52.1783 43.5791 51.5994C42.3499 51.0204 41.0053 50.728 39.6467 50.744C38.288 50.7601 36.9508 51.0842 35.7356 51.6921ZM47.0493 40.3784C46.1248 40.8667 45.4283 41.6976 45.1089 42.6931C44.7894 43.6886 44.8725 44.7696 45.3402 45.7046C45.8079 46.6397 46.6231 47.3545 47.6113 47.6959C48.5995 48.0373 49.6821 47.9783 50.6273 47.5315C51.1929 47.2486 51.8774 47.5711 52.0217 48.1905L53.4189 54.249C53.7243 55.5729 54.3261 56.8104 55.179 57.868C56.0319 58.9257 57.1137 59.776 58.343 60.3549C59.5722 60.9339 60.9167 61.2263 62.2754 61.2102C63.634 61.1942 64.9713 60.87 66.1864 60.2622C67.1354 59.7874 67.8568 58.955 68.192 57.9482C68.5273 56.9415 68.4488 55.8428 67.974 54.8938C67.4992 53.9449 66.6668 53.2235 65.66 52.8882C64.6533 52.553 63.5546 52.6314 62.6056 53.1063C62.4731 53.1723 62.3273 53.2074 62.1793 53.209C62.0312 53.2106 61.8847 53.1786 61.7508 53.1154C61.6169 53.0523 61.499 52.9596 61.4061 52.8444C61.3131 52.7291 61.2475 52.5943 61.2141 52.4501L59.8168 46.3916C59.5115 45.0676 58.9097 43.8302 58.0567 42.7726C57.2038 41.7149 56.122 40.8646 54.8928 40.2856C53.6636 39.7067 52.319 39.4143 50.9604 39.4303C49.6017 39.4464 48.2645 39.7705 47.0493 40.3784ZM58.363 29.0647C57.4386 29.553 56.742 30.3839 56.4226 31.3794C56.1032 32.3749 56.1862 33.4559 56.6539 34.3909C57.1216 35.326 57.9368 36.0408 58.925 36.3822C59.9132 36.7236 60.9958 36.6646 61.941 36.2177C62.5066 35.9349 63.1911 36.2573 63.3354 36.8768L64.7326 42.9353C65.038 44.2592 65.6398 45.4966 66.4927 46.5543C67.3456 47.612 68.4274 48.4623 69.6567 49.0412C70.8859 49.6201 72.2304 49.9126 73.5891 49.8965C74.9477 49.8805 76.285 49.5563 77.5001 48.9485C78.4491 48.4737 79.1705 47.6413 79.5057 46.6345C79.841 45.6278 79.7625 44.5291 79.2877 43.5801C78.8129 42.6312 77.9805 41.9098 76.9737 41.5745C75.967 41.2393 74.8683 41.3177 73.9194 41.7926C73.7868 41.8586 73.641 41.8937 73.493 41.8953C73.3449 41.8969 73.1985 41.8649 73.0645 41.8017C72.9306 41.7386 72.8127 41.6459 72.7198 41.5307C72.6268 41.4154 72.5612 41.2806 72.5278 41.1364L71.1305 35.0779C70.8252 33.7539 70.2234 32.5165 69.3704 31.4588C68.5175 30.4012 67.4357 29.5509 66.2065 28.9719C64.9773 28.393 63.6327 28.1006 62.2741 28.1166C60.9155 28.1327 59.5782 28.4568 58.363 29.0647ZM44.597 84.9685C43.8469 85.7187 43.4255 86.7361 43.4255 87.7969C43.4255 88.8578 43.8469 89.8752 44.597 90.6254L47.4255 93.4538C52.2994 98.3278 58.6164 101.498 65.4369 102.494C72.2574 103.49 79.2172 102.258 85.2811 98.9805C86.5879 98.2734 87.0517 98.8278 87.8069 99.7357C87.9738 99.9366 88.152 100.149 88.3556 100.375C88.8992 100.963 89.5561 101.434 90.2868 101.762C91.0175 102.089 91.8068 102.265 92.6073 102.279C93.4078 102.293 94.2028 102.145 94.9445 101.843C95.6862 101.542 96.3592 101.093 96.923 100.525L105.408 92.0396C107.73 89.7174 107.81 85.8255 105.258 83.4723C105.035 83.2658 104.82 83.0904 104.619 82.9236C103.711 82.1684 103.157 81.7045 103.864 80.3978C107.141 74.3338 108.373 67.374 107.378 60.5535C106.382 53.733 103.211 47.4161 98.3372 42.5421L95.5087 39.7137C94.7586 38.9635 93.7412 38.5421 92.6803 38.5421C91.6194 38.5421 90.602 38.9635 89.8519 39.7137L44.597 84.9685Z" fill="url(#paint0_linear_63271_25763)"/>
<defs>
<linearGradient id="paint0_linear_63271_25763" x1="45.99" y1="41.1067" x2="101.166" y2="96.2823" gradientUnits="userSpaceOnUse">
<stop stop-color="#CEEDE3"/>
<stop offset="1" stop-color="white"/>
</linearGradient>
</defs>
</svg>
