<svg width="96" height="96" viewBox="0 0 96 96" fill="none" xmlns="http://www.w3.org/2000/svg">
<g clip-path="url(#clip0_63271_25765)">
<path d="M108.235 69.2933L113.338 82.2907C113.629 83.0311 113.454 83.8735 112.891 84.4359L89.4364 107.891C88.874 108.453 88.0315 108.629 87.2912 108.338L74.2937 103.234" stroke="url(#paint0_linear_63271_25765)" stroke-width="8" stroke-linecap="round" stroke-linejoin="round"/>
<path d="M37.5243 66.4659L32.4206 53.4684C32.1297 52.7281 32.3055 51.8856 32.868 51.3232L56.3227 27.8685C56.8851 27.306 57.7276 27.1303 58.4679 27.4211L71.4654 32.5248" stroke="url(#paint1_linear_63271_25765)" stroke-width="8" stroke-linecap="round" stroke-linejoin="round"/>
<path d="M38.9383 67.8792C37.3762 66.3171 37.3762 63.7845 38.9383 62.2224L67.2226 33.9381C68.7847 32.3759 71.3173 32.3759 72.8794 33.9381L106.821 67.8792C108.383 69.4413 108.383 71.9739 106.821 73.5361L78.5363 101.82C76.9741 103.382 74.4416 103.382 72.8794 101.82L38.9383 67.8792Z" fill="url(#paint2_linear_63271_25765)" stroke="url(#paint3_linear_63271_25765)" stroke-width="8"/>
<path d="M55.2071 81.3191L62.8243 70.8454C65.2169 67.5557 66.4154 63.5482 66.2218 59.4851C65.9638 54.0669 68.1809 48.8249 72.2482 45.2359L77.8345 40.3069" stroke="white" stroke-width="8" stroke-linecap="round" stroke-linejoin="round"/>
<path d="M68.6452 96.1735L76.1414 87.9635C80.6976 82.9734 82.2746 75.9455 80.2874 69.4872C78.7254 64.4106 79.3501 58.9128 82.0114 54.3161L85.6158 48.0903" stroke="white" stroke-width="8" stroke-linecap="round" stroke-linejoin="round"/>
<path d="M72.885 33.9453L101.169 62.2296" stroke="url(#paint4_linear_63271_25765)" stroke-width="8" stroke-linecap="round" stroke-linejoin="round"/>
<path d="M44.5952 73.5352L72.8795 101.819" stroke="url(#paint5_linear_63271_25765)" stroke-width="8" stroke-linecap="round" stroke-linejoin="round"/>
</g>
<defs>
<linearGradient id="paint0_linear_63271_25765" x1="91.2643" y1="86.2638" x2="101.164" y2="96.1633" gradientUnits="userSpaceOnUse">
<stop stop-color="#FFF0F0"/>
<stop offset="1" stop-color="white"/>
</linearGradient>
<linearGradient id="paint1_linear_63271_25765" x1="44.5953" y1="39.5958" x2="54.4948" y2="49.4953" gradientUnits="userSpaceOnUse">
<stop stop-color="#FFF0F0"/>
<stop offset="1" stop-color="white"/>
</linearGradient>
<linearGradient id="paint2_linear_63271_25765" x1="53.0804" y1="48.0802" x2="92.6784" y2="87.6782" gradientUnits="userSpaceOnUse">
<stop stop-color="#FFF0F0"/>
<stop offset="1" stop-color="white"/>
</linearGradient>
<linearGradient id="paint3_linear_63271_25765" x1="53.0804" y1="48.0802" x2="92.6784" y2="87.6782" gradientUnits="userSpaceOnUse">
<stop stop-color="#FFF0F0"/>
<stop offset="1" stop-color="white"/>
</linearGradient>
<linearGradient id="paint4_linear_63271_25765" x1="73.2386" y1="33.5918" x2="101.523" y2="61.876" gradientUnits="userSpaceOnUse">
<stop stop-color="#FFF0F0"/>
<stop offset="1" stop-color="white"/>
</linearGradient>
<linearGradient id="paint5_linear_63271_25765" x1="44.9488" y1="73.1816" x2="73.233" y2="101.466" gradientUnits="userSpaceOnUse">
<stop stop-color="#FFF0F0"/>
<stop offset="1" stop-color="white"/>
</linearGradient>
<clipPath id="clip0_63271_25765">
<rect width="96" height="96" fill="white" transform="translate(5 67.8828) rotate(-45)"/>
</clipPath>
</defs>
</svg>
