<svg width="97" height="96" viewBox="0 0 97 96" fill="none" xmlns="http://www.w3.org/2000/svg">
<g clip-path="url(#clip0_63271_25764)">
<path fill-rule="evenodd" clip-rule="evenodd" d="M32.6132 61.1722C32.6129 59.0506 33.4553 57.0158 34.9551 55.5153L60.8975 29.573C62.398 28.0731 64.4328 27.2307 66.5543 27.2311L80.21 27.2311C82.3315 27.2307 84.3663 28.0731 85.8668 29.573L118.637 62.3431C120.887 64.5936 122.152 67.6458 122.152 70.8284C122.152 74.011 120.887 77.0633 118.637 79.3137L84.6959 113.255C82.4454 115.505 79.3932 116.77 76.2106 116.77C73.028 116.77 69.9757 115.505 67.7253 113.255L34.9551 80.4847C33.4553 78.9842 32.6129 76.9494 32.6132 74.8278V61.1722ZM66.5543 35.2298L40.612 61.1722V72.4859L77.868 35.2298H66.5543ZM67.7253 73.6569C66.9751 72.9067 65.9577 72.4853 64.8969 72.4853C63.836 72.4853 62.8186 72.9067 62.0684 73.6569C61.3183 74.407 60.8969 75.4244 60.8969 76.4853C60.8969 77.5461 61.3183 78.5636 62.0684 79.3137C65.069 82.3143 69.1387 84 73.3821 84C77.6256 84 81.6953 82.3143 84.6959 79.3137C87.6964 76.3131 89.3821 72.2435 89.3821 68C89.3821 63.7565 87.6964 59.6869 84.6959 56.6863C83.9457 55.9361 82.9283 55.5147 81.8674 55.5147C80.8066 55.5147 79.7891 55.9361 79.039 56.6863C78.2889 57.4364 77.8674 58.4539 77.8674 59.5147C77.8674 60.5756 78.2889 61.593 79.039 62.3431C80.5393 63.8434 81.3821 65.8783 81.3821 68C81.3821 70.1217 80.5393 72.1566 79.039 73.6569C77.5387 75.1571 75.5039 76 73.3821 76C71.2604 76 69.2256 75.1571 67.7253 73.6569Z" fill="url(#paint0_linear_63271_25764)"/>
</g>
<defs>
<linearGradient id="paint0_linear_63271_25764" x1="47.9263" y1="42.5442" x2="101.666" y2="96.2843" gradientUnits="userSpaceOnUse">
<stop stop-color="#FFF0DA"/>
<stop offset="1" stop-color="white"/>
</linearGradient>
<clipPath id="clip0_63271_25764">
<rect width="96" height="96" fill="white" transform="translate(5.5 68) rotate(-45)"/>
</clipPath>
</defs>
</svg>
