<svg width="97" height="96" viewBox="0 0 97 96" fill="none" xmlns="http://www.w3.org/2000/svg">
<g clip-path="url(#clip0_62412_30330)">
<path fill-rule="evenodd" clip-rule="evenodd" d="M34.7916 56.1934C34.9916 52.0334 35.8796 48.3614 36.9316 45.5014C37.9276 42.8014 39.2316 40.3814 40.5556 39.0614C41.8756 37.7414 44.2956 36.4334 46.9956 35.4414C50.4309 34.191 54.0358 33.4681 57.6876 33.2974C64.8476 32.9574 73.3956 34.6774 81.5636 40.9774L81.7516 41.0494L93.2556 46.7974C93.9754 47.1572 94.5699 47.7258 94.9615 48.4289C95.3531 49.1319 95.5235 49.9367 95.4505 50.7382C95.3775 51.5396 95.0644 52.3004 94.5522 52.9211C94.0401 53.5418 93.3526 53.9936 92.5796 54.2174C95.1601 59.3988 96.7577 65.0137 97.2916 70.7774L97.4596 72.8174L97.6156 75.1494L97.8276 79.0534L98.0276 83.2614C98.1236 85.2734 98.2196 87.3174 98.3236 89.2934C100.536 89.4526 102.742 89.6981 104.936 90.0294C106.232 90.2134 107.507 90.5229 108.744 90.9534C110.752 91.7174 112.436 93.3414 112.436 95.6294C112.436 98.6374 110.316 101.373 108.208 103.601L107.168 104.673L105.644 106.193C103.324 108.449 100.384 110.941 97.1236 110.941C95.2836 110.941 94.0916 109.873 93.5356 109.197C92.5556 108.009 92.0956 106.473 91.7876 104.949L91.5236 103.445C91.1923 101.25 90.9468 99.0435 90.7876 96.8294L79.2036 96.2694L76.6436 96.1214L74.3116 95.9694C73.5796 95.9134 72.8956 95.8574 72.2716 95.7974C66.4556 95.2454 60.7516 93.6334 55.7116 91.0854C55.4873 91.8582 55.0351 92.5453 54.4141 93.0571C53.7932 93.5688 53.0323 93.8814 52.2309 93.954C51.4296 94.0266 50.6249 93.8558 49.9221 93.4639C49.2193 93.072 48.6511 92.4773 48.2916 91.7574L42.6316 80.4454C42.5701 80.3237 42.5166 80.1981 42.4716 80.0694C36.1716 71.9054 34.4476 63.3534 34.7916 56.1934ZM54.6956 53.2014C53.57 54.3265 52.9374 55.8526 52.9371 57.444C52.9367 59.0354 53.5685 60.5618 54.6936 61.6874C55.8186 62.813 57.3447 63.4455 58.9362 63.4459C60.5276 63.4463 62.054 62.8145 63.1796 61.6894C64.2731 60.5583 64.8786 59.043 64.8656 57.4698C64.8527 55.8966 64.2224 54.3914 63.1105 53.2784C61.9985 52.1655 60.494 51.5337 58.9208 51.5193C57.3476 51.5049 55.8277 52.109 54.6956 53.2014Z" fill="#F2F2F2"/>
</g>
<defs>
<clipPath id="clip0_62412_30330">
<rect width="96" height="96" fill="white" transform="translate(0.5 96) rotate(-90)"/>
</clipPath>
</defs>
</svg>
