<svg width="20" height="20" viewBox="0 0 20 20" fill="none" xmlns="http://www.w3.org/2000/svg">
<path d="M10 6.66797V13.3346M10 13.3346L7.5 10.8346M10 13.3346L12.5 10.8346" stroke="black" stroke-width="1.5" stroke-linecap="round" stroke-linejoin="round"/>
<path d="M3.78305 8.12196L4.08518 7.93347L4.13008 7.5802C4.5001 4.66907 6.98734 2.41797 9.99919 2.41797C13.011 2.41797 15.4983 4.66908 15.8683 7.5802L15.9132 7.93347L16.2153 8.12196C17.5383 8.94731 18.4159 10.4138 18.4159 12.0846C18.4159 14.5317 16.5318 16.5395 14.1356 16.7356L5.86356 16.7512C3.46482 16.5398 1.58252 14.5298 1.58252 12.0846C1.58252 10.4138 2.4601 8.9473 3.78305 8.12196Z" stroke="#030319" stroke-width="1.5"/>
</svg>
