<svg width="20" height="20" viewBox="0 0 20 20" fill="none" xmlns="http://www.w3.org/2000/svg">
<path d="M8.99992 1.40938C9.61872 1.05212 10.3811 1.05212 10.9999 1.40938L16.9385 4.83801C17.5573 5.19528 17.9385 5.85553 17.9385 6.57006V13.4273C17.9385 14.1419 17.5573 14.8021 16.9385 15.1594L10.9999 18.588C10.3811 18.9453 9.61872 18.9453 8.99992 18.588L3.06135 15.1594C2.44255 14.8021 2.06135 14.1419 2.06135 13.4273V6.57007C2.06135 5.85553 2.44255 5.19528 3.06135 4.83801L8.99992 1.40938Z" stroke="#030319" stroke-width="1.5"/>
<path d="M14.1666 7.70703L10.9311 9.40919C10.3482 9.71585 9.65165 9.71585 9.06874 9.40919L5.83325 7.70703" stroke="#030319" stroke-width="1.5" stroke-linecap="round" stroke-linejoin="round"/>
<path d="M9.25 14.9987C9.25 15.4129 9.58579 15.7487 10 15.7487C10.4142 15.7487 10.75 15.4129 10.75 14.9987H9.25ZM9.25 9.58203V14.9987H10.75V9.58203H9.25Z" fill="#030319"/>
</svg>
