<svg width="20" height="20" viewBox="0 0 20 20" fill="none" xmlns="http://www.w3.org/2000/svg">
<path d="M4.16675 1.66797V1.66797C4.16675 2.58844 4.91294 3.33464 5.83342 3.33464H14.1667C15.0872 3.33464 15.8334 2.58844 15.8334 1.66797V1.66797" stroke="#030319" stroke-width="1.5"/>
<path d="M4.08325 12.4987C4.08325 9.23101 6.73223 6.58203 9.99992 6.58203C13.2676 6.58203 15.9166 9.23101 15.9166 12.4987V16.332C15.9166 17.0224 15.3569 17.582 14.6666 17.582H5.33325C4.6429 17.582 4.08325 17.0224 4.08325 16.332V12.4987Z" stroke="#030319" stroke-width="1.5"/>
<path d="M10 3.33203V6.66536" stroke="#030319" stroke-width="1.5"/>
<path d="M11.6917 9.62947C11.1954 9.33622 10.6166 9.16797 9.99833 9.16797C8.15742 9.16797 6.66504 10.6604 6.66504 12.5013C6.66504 14.3422 8.15742 15.8346 9.99833 15.8346C11.8393 15.8346 13.3317 14.3422 13.3317 12.5013C13.3317 11.8831 13.1634 11.3042 12.8702 10.808L10.5877 13.0906L10.5091 13.1599C10.1822 13.4141 9.7095 13.391 9.40908 13.0906C9.08366 12.7651 9.08366 12.2375 9.40908 11.9121L11.6917 9.62947Z" fill="black"/>
</svg>
